# Blender v2.93.4 OBJ File: 'pzb_magnet.blend'
# www.blender.org
mtllib pzb_magnet.mtl
o Cube
v -1.131309 -0.220209 1.122828
v -1.180068 -0.220209 1.078338
v -1.165787 -0.220209 1.109797
v -1.255360 0.034286 1.095540
v -1.206709 0.034286 1.140057
v -1.241110 0.034286 1.127018
v -1.180068 -0.220209 0.859088
v -1.131309 -0.220209 0.814598
v -1.165787 -0.220209 0.827629
v -1.206709 0.034286 0.797369
v -1.255360 0.034286 0.841886
v -1.241110 0.034286 0.810408
v 0.166903 -0.220209 1.078338
v 0.118144 -0.220209 1.122828
v 0.152622 -0.220209 1.109797
v 0.193544 0.034286 1.140057
v 0.242195 0.034286 1.095540
v 0.227945 0.034286 1.127018
v 0.118144 -0.220209 0.814598
v 0.166903 -0.220209 0.859088
v 0.152622 -0.220209 0.827629
v 0.242195 0.034286 0.841886
v 0.193544 0.034286 0.797369
v 0.227945 0.034286 0.810408
v -1.255360 0.005694 1.095526
v -1.206530 0.005694 1.140057
v -1.241058 0.005694 1.127014
v -1.206530 0.005694 0.797369
v -1.255360 0.005694 0.841900
v -1.241058 0.005694 0.810412
v 0.242195 0.005694 0.841900
v 0.193365 0.005694 0.797369
v 0.227893 0.005694 0.810412
v 0.193365 0.005694 1.140057
v 0.242195 0.005694 1.095526
v 0.227893 0.005694 1.127014
v -1.168667 0.000212 0.805914
v -1.218018 0.000212 0.850443
v -1.203563 0.000212 0.818956
v 0.204853 0.000212 0.850443
v 0.155502 0.000212 0.805914
v 0.190398 0.000212 0.818956
v 0.155502 0.000212 1.131512
v 0.204853 0.000212 1.086983
v 0.190398 0.000212 1.118469
v -1.218018 0.000212 1.086983
v -1.168667 0.000212 1.131512
v -1.203563 0.000212 1.118469
v -1.193760 -0.044162 0.855967
v -1.144823 -0.044162 0.811465
v -1.179426 -0.044162 0.824499
v 0.131658 -0.044162 0.811465
v 0.180594 -0.044162 0.855967
v 0.166261 -0.044162 0.824499
v 0.180594 -0.044162 1.081459
v 0.131658 -0.044162 1.125961
v 0.166261 -0.044162 1.112926
v -1.193760 -0.044162 1.081459
v -1.144823 -0.044162 1.125961
v -1.179426 -0.044162 1.112926
vt 0.025870 0.870265
vt 0.007577 0.861985
vt 0.000000 0.841993
vt 0.000000 0.028272
vt 0.007577 0.008281
vt 0.025870 0.000000
vt 0.173274 0.000000
vt 0.191567 0.008281
vt 0.199144 0.028272
vt 0.199144 0.841993
vt 0.191567 0.861985
vt 0.173274 0.870265
vt 0.399193 0.806079
vt 0.501756 0.804265
vt 0.501756 0.935304
vt 0.399193 0.933491
vt 0.367445 0.848565
vt 0.372410 0.870265
vt 0.225022 0.870265
vt 0.229986 0.848565
vt 0.835738 0.192355
vt 0.852254 0.192347
vt 0.852254 0.339751
vt 0.835738 0.339743
vt 0.578132 0.041989
vt 0.680142 0.034136
vt 0.680142 0.775930
vt 0.578132 0.768076
vt 0.706844 0.041989
vt 0.808854 0.034136
vt 0.808854 0.775930
vt 0.706844 0.768076
vt 0.204110 0.819886
vt 0.199144 0.841889
vt 0.199144 0.028376
vt 0.204110 0.050379
vt 0.938299 0.021508
vt 0.965470 0.018298
vt 0.965470 0.155757
vt 0.938299 0.152547
vt 0.229986 0.021700
vt 0.225022 0.000000
vt 0.372410 0.000000
vt 0.367445 0.021700
vt 0.393322 0.050379
vt 0.398288 0.028376
vt 0.398288 0.841889
vt 0.393322 0.819886
vt 0.834831 0.020279
vt 0.834831 0.789786
vt 0.528927 0.801055
vt 0.528927 0.938514
vt 0.706119 0.020279
vt 0.706119 0.789786
vt 0.982010 0.833608
vt 0.965470 0.833712
vt 0.965471 0.019991
vt 0.982010 0.020095
vt 0.835738 0.376345
vt 0.852254 0.376337
vt 0.852254 0.523741
vt 0.835738 0.523733
vt 0.999274 0.833608
vt 0.982735 0.833712
vt 0.982735 0.019991
vt 0.999274 0.020095
vt 0.424142 0.782758
vt 0.405860 0.774458
vt 0.398288 0.754423
vt 0.398288 0.028335
vt 0.405860 0.008299
vt 0.424142 0.000000
vt 0.551554 0.000000
vt 0.569835 0.008299
vt 0.577407 0.028335
vt 0.577407 0.754423
vt 0.569835 0.774458
vt 0.551554 0.782758
vt 0.966196 0.000000
vt 0.982735 0.000030
vt 0.834831 0.174057
vt 0.851351 0.174054
vt 0.706119 0.021953
vt 0.808129 0.014027
vt 0.937390 0.170833
vt 0.834831 0.169014
vt 0.835737 0.150733
vt 0.398288 0.787797
vt 0.500847 0.785979
vt 0.808129 0.796038
vt 0.706119 0.788112
vt 0.577407 0.021953
vt 0.679417 0.014027
vt 0.500847 0.953591
vt 0.398288 0.951772
vt 0.390708 0.861954
vt 0.385743 0.840165
vt 1.000000 0.853673
vt 0.983460 0.853704
vt 0.851351 0.358044
vt 0.834831 0.358042
vt 0.834831 0.358046
vt 0.851351 0.358044
vt 0.983460 0.000000
vt 1.000000 0.000030
vt 0.982735 0.853673
vt 0.966196 0.853704
vt 0.851351 0.542034
vt 0.834831 0.542031
vt 0.211689 0.840165
vt 0.206723 0.861954
vt 0.211689 0.030100
vt 0.206723 0.008311
vt 0.385743 0.030100
vt 0.390709 0.008311
vt 0.705394 0.810065
vt 0.679417 0.796038
vt 0.937390 0.003221
vt 0.964554 0.000000
vt 0.834106 0.000000
vt 0.964554 0.174054
vt 0.528011 0.782758
vt 0.834106 0.810065
vt 0.705394 0.000000
vt 0.528011 0.956812
vt 0.577407 0.788112
vt 0.834831 0.005040
vt 0.835737 0.023321
vn 0.0000 1.0000 -0.0000
vn 0.9970 -0.0775 0.0000
vn -0.1452 -0.9894 0.0000
vn -1.0000 -0.0000 0.0000
vn 0.0000 -0.0178 0.9998
vn 0.0000 -0.0178 -0.9998
vn 0.0000 -0.8417 -0.5400
vn -0.8774 -0.4797 0.0000
vn 0.1452 -0.9894 0.0000
vn 0.0000 -0.8417 0.5400
vn 0.0000 -0.1241 -0.9923
vn 0.8774 -0.4797 0.0000
vn 0.0000 -0.1241 0.9923
vn 0.0000 0.0000 1.0000
vn 1.0000 0.0000 0.0000
vn 0.0000 0.0000 -1.0000
vn 0.0000 -1.0000 0.0000
vn -0.3539 -0.0015 0.9353
vn -0.9107 -0.0010 0.4130
vn -0.3527 -0.0438 -0.9347
vn -0.9075 -0.0778 -0.4127
vn 0.9075 -0.0778 -0.4127
vn 0.3527 -0.0438 -0.9347
vn 0.3527 -0.0438 0.9347
vn 0.9075 -0.0778 0.4127
vn -0.0879 -0.9683 0.2338
vn -0.1313 -0.9895 0.0599
vn -0.3539 -0.0015 -0.9353
vn -0.9107 -0.0010 -0.4130
vn 0.9107 -0.0010 -0.4130
vn 0.3539 -0.0015 -0.9353
vn 0.3539 -0.0015 0.9353
vn 0.9107 -0.0010 0.4130
vn -0.0879 -0.9683 -0.2338
vn -0.1313 -0.9895 -0.0599
vn 0.1313 -0.9895 -0.0599
vn 0.0879 -0.9683 -0.2338
vn 0.0879 -0.9683 0.2338
vn 0.1313 -0.9895 0.0599
vn -0.3358 -0.2934 0.8950
vn -0.7976 -0.4804 0.3647
vn -0.3358 -0.2934 -0.8950
vn -0.7976 -0.4804 -0.3647
vn 0.7976 -0.4804 -0.3647
vn 0.3358 -0.2934 -0.8950
vn 0.3358 -0.2934 0.8950
vn 0.7976 -0.4804 0.3647
vn -0.3527 -0.0438 0.9347
vn -0.9075 -0.0778 0.4127
vn -0.9970 -0.0775 0.0000
usemtl None
s off
f 22/1/1 24/2/1 23/3/1 10/4/1 12/5/1 11/6/1 4/7/1 6/8/1 5/9/1 16/10/1 18/11/1 17/12/1
f 20/13/2 53/14/2 55/15/2 13/16/2
f 46/17/3 25/18/3 29/19/3 38/20/3
f 25/21/4 4/22/4 11/23/4 29/24/4
f 14/25/5 56/26/5 59/27/5 1/28/5
f 8/29/6 50/30/6 52/31/6 19/32/6
f 37/33/7 28/34/7 32/35/7 41/36/7
f 58/37/8 46/38/8 38/39/8 49/40/8
f 40/41/9 31/42/9 35/43/9 44/44/9
f 43/45/10 34/46/10 26/47/10 47/48/10
f 50/30/11 37/49/11 41/50/11 52/31/11
f 53/14/12 40/51/12 44/52/12 55/15/12
f 56/26/13 43/53/13 47/54/13 59/27/13
f 34/55/14 16/56/14 5/57/14 26/58/14
f 31/59/15 22/60/15 17/61/15 35/62/15
f 28/63/16 10/64/16 23/65/16 32/66/16
f 7/67/17 9/68/17 8/69/17 19/70/17 21/71/17 20/72/17 13/73/17 15/74/17 14/75/17 1/76/17 3/77/17 2/78/17
f 26/58/18 5/57/18 6/79/18 27/80/18
f 27/81/19 6/82/19 4/22/19 25/21/19
f 50/30/20 8/29/20 9/83/20 51/84/20
f 51/85/21 9/86/21 7/87/21 49/40/21
f 53/14/22 20/13/22 21/88/22 54/89/22
f 54/90/23 21/91/23 19/32/23 52/31/23
f 56/26/24 14/25/24 15/92/24 57/93/24
f 57/94/25 15/95/25 13/16/25 55/15/25
f 47/48/26 26/47/26 27/96/26 48/97/26
f 48/97/27 27/96/27 25/18/27 46/17/27
f 10/64/28 28/63/28 30/98/28 12/99/28
f 12/100/29 30/101/29 29/24/29 11/23/29
f 22/60/30 31/59/30 33/102/30 24/103/30
f 24/104/31 33/105/31 32/66/31 23/65/31
f 16/56/32 34/55/32 36/106/32 18/107/32
f 18/108/33 36/109/33 35/62/33 17/61/33
f 28/34/34 37/33/34 39/110/34 30/111/34
f 30/111/35 39/110/35 38/20/35 29/19/35
f 31/42/36 40/41/36 42/112/36 33/113/36
f 33/113/37 42/112/37 41/36/37 32/35/37
f 34/46/38 43/45/38 45/114/38 36/115/38
f 36/115/39 45/114/39 44/44/39 35/43/39
f 59/27/40 47/54/40 48/116/40 60/117/40
f 60/118/41 48/119/41 46/38/41 58/37/41
f 37/49/42 50/30/42 51/84/42 39/120/42
f 39/121/43 51/85/43 49/40/43 38/39/43
f 40/51/44 53/14/44 54/89/44 42/122/44
f 42/123/45 54/90/45 52/31/45 41/50/45
f 43/53/46 56/26/46 57/93/46 45/124/46
f 45/125/47 57/94/47 55/15/47 44/52/47
f 1/28/48 59/27/48 60/117/48 3/126/48
f 3/127/49 60/118/49 58/37/49 2/128/49
f 2/128/50 58/37/50 49/40/50 7/87/50
